<?xml version="1.0" encoding="UTF-8"?>
<svg id="Layer_2" data-name="Layer 2" xmlns="http://www.w3.org/2000/svg" viewBox="0 0 3041.45 958.73">
  <defs>
    <style>
      .cls-1 {
        fill: #499acf;
      }

      .cls-2 {
        fill: #4596cd;
      }

      .cls-3 {
        fill: #f18723;
      }

      .cls-4 {
        fill: #f59429;
      }
    </style>
  </defs>
  <g id="Layer_1-2" data-name="Layer 1">
    <g>
      <path class="cls-4" d="M992.83,270.6c-4.05,3.93-9.2,2.79-12.82-1.78l-21.35-26.89-19.97-22.56c-40.03-41.34-85.3-74.78-134.44-99.84-36.61-18.67-74.39-32.82-113.53-42.02-18.78-4.41-36.68-7.19-55.73-9.66-53.25-6.93-111.71-3.67-164.67,6.93-37.93,7.59-74.7,19.12-110.91,34.37-30.7,12.94-59.7,28.92-88.12,47.62-65.38,43.04-125.38,104.14-167.59,176.71-22.93,39.43-40.17,82.56-50.85,128.52-12.69,54.6-14.01,111.57-3.06,166.63,8.53,42.9,23.34,82.84,43.95,119.43,2.2,3.91-.03,8.32-2.35,10.59-2.4,2.32-7.26,3.62-9.88.1-25.34-34.17-45.45-72.54-59.57-114.69-10.99-32.8-18.27-66.28-20.56-101.34l-.78-11.76-.62-3.51.05-34.81c.51-1.82.48-3.75.64-6.47,3-49.36,14.27-97.07,32.41-141.78,7.1-17.51,14.37-33.73,23.17-50.17,25-46.75,55.5-88.87,91.07-125.38,31.53-32.37,65.85-60.68,102.72-84.12,26.85-17.07,54-31.79,82.53-44.25,18.11-7.9,35.75-13.95,54.41-19.95,30.76-9.91,61.81-15.22,92.93-20.53h135.92c64.31,8.65,127.89,28.97,186.95,63.12,79.38,45.89,142.47,107.17,191.84,192.99,3.13,5.44,1.77,11-1.82,14.49Z"/>
      <path class="cls-2" d="M1496.45,877.52c-37.92,42.37-78.46,67.49-133.33,81.21l-108.79-.05c-53.73-12.39-99.03-39.26-142.32-73.23l-53.62-45.49-40.62-37.24-49.14-42.63c-23.39-19.1-48.18-35.08-75.33-48.37-66.09-32.39-125.82-28.18-195.86-14.1-21.01,4.23-41.05,8.24-61.46,14.83l-74.91,24.14-34.84,12.74-40.81,16.59-50.13,22.72c-2.61,1.18-5.87,1.83-8.43.51-3.1-1.61-5.31-5.16-5.64-7.94-.44-3.59.55-7.41,3.48-9.81,30.77-25.26,63.07-47.63,97.29-67.98l41.12-22.18c35.93-18.04,72.79-32.54,111.8-42.81,21.58-5.69,42.64-9.47,64.93-12.17,44.97-5.46,90-2.64,133.69,9.53,33.23,9.26,63.93,24.35,92.51,43.29,13.21,8.75,24.72,17.96,37.05,27.85l71.79,57.54,48.83,33.25c53.08,32.72,111.2,56.26,172.41,68.93,29.61,6.12,58.94,9.11,89.12,9.42,34.79.35,68.25-4.97,101.51-13.96,4.16-1.12,8.34,1.74,10.1,4.34,2.18,3.19,2.48,7.88-.38,11.08Z"/>
      <path class="cls-2" d="M1454.34,556.97l-11.72,23.49c-8.83,17.69-20.95,32.9-34.28,47.6-35.16,38.78-82.53,64.17-134.38,71.87-51.06,7.59-103.02-.45-152.64-15.44l-58.41-20.61-43.96-17.6-96.25-37.95c-21.1-8.31-41.97-14.47-64.12-19.51-29.13-6.64-58.51-9.38-88.37-5.69-56.94,7.05-108.67,32.92-156.3,64.04-56.52,36.94-109.25,78.65-158.55,124.57l-14.81,14.87c-4.2,4.23-8.9,6.1-14.3,3.03-4.84-2.74-6.72-8.99-3.64-14.47l24.76-44.12c28.8-46.37,64.31-87.79,106.5-122.76,27.36-22.68,58.09-41.53,90.5-55.91,44.65-19.79,91.74-29.79,140.57-29.95,31.68-.1,62.46,3.18,93.27,9.85l53.3,14.7,62.84,17.61c39.71,11.12,79.13,20.55,119.9,27.37,34.41,5.76,68.31,8.52,103.24,8.28,75.47-.52,154.99-18.92,221.29-54.78,4.33-2.33,8.47-2.92,12.35.08,2.84,2.2,5.28,7.23,3.2,11.41Z"/>
      <path class="cls-3" d="M696.64,487.04l-15.88,19.66c-64.5,15.99-124.58,45.42-177.15,86.19-17.96,13.94-26-8.11-42.35-9.14l-24.2-1.53c-4.29-.27-7.72-2.66-9.13-6.31l-7.26-18.77c-1.9-4.92-5.28-8.56-9.88-11.06l-14.28-7.78c-7.06-3.84-12.23-11.45-12.26-19.57l-.04-16.55c-.04-13.73-12.88-15.66-14.03-24.2-.94-6.95,12.73-17.9,14.27-28.93,2.05-14.77-10.65-29.95,2.9-38.38l13.48-8.39c5.06-3.14,7.74-8.08,9.15-13.78l3.96-16.05c1.16-4.72,5.49-8.01,10.05-9.03l18.79-4.21c5.15-1.15,9.45-4.24,12.41-8.55l8.15-11.91c3.41-4.99,9.12-7.91,15.44-6.77l17.88,3.22c6.28,1.13,12.2-.45,17.35-3.74l12.83-8.18c5.4-3.45,12.16-2.94,17.4.32l14.89,9.27c3.86,2.4,9.99,3.18,14.5,2.38l18.98-3.39c5.73-1.02,10.57,1.22,13.82,5.54l9.88,13.17c3.29,4.38,7.85,7.52,13.21,8.74l17.11,3.87c5.51,1.25,9.82,5.29,11.2,10.82l4,15.98c1.34,5.32,4.25,9.22,8.88,12.19l13.97,8.98c4.42,2.85,6.39,8.35,5.44,13.32l-3.39,17.77c-.98,5.13.24,11.27,3.15,15.61l10.07,15.02c2.59,5.18.04,10.03-3.31,14.17Z"/>
      <path class="cls-3" d="M348.35,461.86c-3.44,3.14-9.87,2.59-14.25.82-22.85-9.27-45.5-16.46-70.32-21.06l-40.12-7.43c-9.84-1.82-17.49-6.76-16.26-15.48,1.45-10.33,21.57-13.87,34.37-14.36,38.97-1.51,77.06,12.67,104.78,39.7,5.07,4.95,7.27,12.81,1.8,17.81Z"/>
      <path class="cls-3" d="M801.62,326.18l-33.4,13.48c-23.45,9.47-45.44,20.02-66.12,35.26-7.42,5.47-14.81,7.86-20.19,2.65-6.68-6.48-1.38-15.68,4.66-23.65,19.1-25.23,45.83-43.32,76.97-49.81,17.29-3.61,44.26-6.13,45.83,9.83.47,4.8-2.61,10.16-7.75,12.24Z"/>
      <path class="cls-3" d="M659.81,200.22l-12.73,18.33c-11.17,16.09-23.01,31.1-30.9,49.08l-15.07,34.34c-2.5,5.7-7.35,8.91-12.47,7.81-4.89-1.04-9.43-4.99-9.69-10.99-1.88-43.36,17.9-86.71,55-110.34,9.67-6.16,20.55-9.14,25.81-.78,2.26,3.59,2.58,8.9.05,12.55Z"/>
      <path class="cls-3" d="M324.91,545.64c-28.56,7.53-54.96,18.74-80.82,34.32-9.05,5.46-17.05,10.37-26.1,14.39-4.54,2.01-10.36.42-13.31-2.63-16.19-16.7,43.16-79.41,118.96-67.89,5.69.87,9.57,5.43,9.92,9.93.38,4.87-2.99,10.39-8.65,11.88Z"/>
      <path class="cls-3" d="M382.24,363.66c-3.37,4.39-9.94,4.49-14.71,1.03-11.85-8.6-22.58-17.08-34.88-24.5-16.01-9.64-32.81-16.29-50.31-22.63-12.77-4.62-25.49-9.77-22.32-21.59.99-3.7,5.38-7.5,10.64-8.23,26.22-3.63,52.66,3.65,74.65,18.88,15.82,10.96,28.2,25.68,37.36,42.4,2.53,4.63,2.61,10.68-.43,14.64Z"/>
      <path class="cls-3" d="M495.15,318.17c-3.84,3.31-9.84,4.03-14.29.77-9.95-7.28-17.27-16.73-23.49-27.51-11.96-20.68-16.47-44.58-11.49-68.03,2.63-12.41,9.13-27.6,20.27-26.45,10.11,1.03,10.98,14.84,12.07,25.79,1.54,15.38,2.92,30.32,6.49,45.41,2.94,12.43,7.61,23.87,12.15,36.18,1.99,5.42,2.04,10.6-1.71,13.84Z"/>
      <polygon class="cls-4" points="3041.45 492.05 3041.45 852.02 2949.25 852.4 2949.18 492.37 3041.45 492.05"/>
      <polygon class="cls-4" points="1930.32 583.4 1837.32 583.4 1837.25 852.28 1744.49 852.39 1744.46 583.39 1651.7 583.36 1651.68 506.28 1930.3 506.3 1930.32 583.4"/>
      <polygon class="cls-4" points="2670.81 595.23 2569.9 852.39 2482.55 852.34 2415.12 681.48 2380.29 595.29 2482.5 595.29 2514.9 693.53 2528.44 739.9 2541.66 691.14 2571.37 595.24 2670.81 595.23"/>
      <path class="cls-4" d="M2120.39,595.19l-2.65,85.29-31.23-5.79c-10.95-2.02-21.85.18-32.07,4.24-20.54,9.09-27.1,26.69-26.87,49.72l1.22,123.82h-93.06s-1.39-96.52-1.39-96.52l-4.59-160.57,84.62.04,2.28,29.34c16.83-21.77,41.27-34.37,68.8-34.98,12.12-.27,23.42,1.39,34.94,5.41Z"/>
      <path class="cls-4" d="M2374.76,796.01l-.11-102.89c-3.81-60.03-35.42-93.45-94.66-101.74-44.48-4.05-96.41,1.08-135.31,25.52l19.45,60.97c26.21-13.34,51.16-22.06,81.34-21.86,15.12.9,29.82,4.93,35.4,18.83-37.72.78-78.66,7.79-109.45,27.94-22.08,14.46-34.18,37-34.78,63.3-.86,38.05,21.32,74.06,58.29,86.92,18.53,6.44,38.11,5.97,56.45,2.02,14.73-3.18,26.78-10.8,38.82-19.37l3.97,16.79,86.8-.05c-3.21-19.25-6.19-37.18-6.21-56.38ZM2297.76,748.97c-.33,12.63-1.67,24.53-9.86,34.71-10.29,12.78-27.07,20.25-43.4,18.46-20.1-2.2-32.66-18.62-31.64-38.22,1.2-23.2,24.05-34.49,46.4-37.9l37.99-1.85.93,9.22-.42,15.58Z"/>
      <path class="cls-1" d="M1458.65,369.32c-15.93,9.45-32.33,14.97-51.64,17.03-32.83,3.5-64.53.34-95.32-9.25-10.65-3.6-20.01-7.73-29.87-14.25l18.67-70.22c29.09,16.68,66.23,28.96,98.9,22.55,5.93-2,12.2-4.04,16.29-8.89,8.04-9.52,5.65-23.64-4.13-31.28-9.08-7.08-19.51-11.17-30.18-15.73l-37.13-15.87c-18.58-7.94-42.85-29.66-50.94-50.06-12.56-31.65-5.5-67.76,18.08-92.32,11.2-11.67,24.52-19.71,39.48-25.62,44.48-15.38,100.56-10.92,143.17,11l-18.7,68.21-14.76-6.59c-22.69-11.42-66.82-19.27-84.43-3.39-6.98,6.29-7.67,16.31-1.34,23.29,4.29,4.73,9.46,8.99,15.52,11.47l32.59,13.35c39.27,16.08,72.63,35.15,80.2,80.74,6.38,38.47-10.97,75.98-44.46,95.83Z"/>
      <path class="cls-1" d="M2777.94,248.23l-.08,135.14-82.09-.04.14-135.07c-1.26-9.36-2.92-18.35-9.96-24.68-10.52-9.46-27.65-8.73-38.18,1.14-7.17,6.72-9.76,15.15-10.54,24.52l.08,134.08-82.28.02.1-167.1-2.33-62.68h74.4s1.34,18.82,1.34,18.82c28.86-28.52,80.22-31.45,112.63-8.85,26.58,18.53,36.53,52.59,36.77,84.7Z"/>
      <path class="cls-1" d="M1919.18,152.5l-.09,78.02c-14.21-5.24-27.88-6.8-41.69-3.53-7.44,1.98-13.47,5.86-18.25,11.83-5.49,8.11-8.82,17.17-8.82,27.42v117.06h-82.01s-.01-164.06-.01-164.06l-2.58-65.65,73.87-.03,1.33,22.57c18.53-24.04,49.77-32.98,78.25-23.63Z"/>
      <g>
        <polygon class="cls-1" points="2279.38 153.47 2279.33 383.41 2196.94 383.39 2197 153.45 2279.38 153.47"/>
        <path class="cls-1" d="M2256.82,139.9c-12.06,5.02-25.46,4.73-36.94-.03-17.13-7.11-27.43-23.71-25.88-41.82,1.5-17.57,14.82-32.96,32.89-36.38,7.43-1.41,14.85-1.43,22.24-.09,18.06,3.27,31.14,18.12,33.15,35.43,2.11,18.23-7.88,35.57-25.46,42.89Z"/>
      </g>
      <g>
        <path class="cls-1" d="M2899.89,101.59c-.1,15.98-9.14,30.84-24.69,37.78-12.37,5.51-26.28,5.4-38.32.47-15.95-6.53-25.63-21.63-25.73-38.26-.11-16.38,9.95-31.81,26.05-37.8,12.42-4.62,26.63-4.4,38.82.85,14.99,6.46,23.97,21.41,23.87,36.96Z"/>
        <polygon class="cls-1" points="2896.79 383.43 2814.17 383.44 2814.13 153.48 2896.74 153.46 2896.79 383.43"/>
      </g>
      <path class="cls-1" d="M2161.76,153.57l-73.4.02-1.26,14.61c-9.95-8.38-20.29-14.23-32.46-16.98-48.69-10.99-96.84,13.63-116.93,59.48-23.32,53.21-13.89,124.16,37.22,157.01,30.52,19.62,74.71,20.2,103.73-2.87-1.91,24.19-11.94,39.13-36.11,42.47-22.03,3.04-44.11-.71-64.42-9.72l-17.62-7.81-17.88,61.8c37.84,24.27,93.9,27.24,136.1,16.99,37.66-9.14,65.86-36.7,75.22-74.07,3.53-14.13,4.98-27.58,5.34-42.46l-.38-123.86,2.85-74.61ZM2042.41,329.83c-17.86-1.09-32.91-11.7-40.32-28.31-6.31-14.17-7.98-29.94-6.59-45.5,2.77-30.93,21.84-56.91,54.1-54.47,25.44,1.92,40.85,24.99,41.08,49.25l.31,31.62c-2.53,28.56-19.4,49.19-48.58,47.41Z"/>
      <path class="cls-1" d="M2518.26,328.09l-.42-83.91c-.48-41.45-19.62-77.09-60.15-89.32-13.53-4.08-26.89-5.87-41.2-6.03-21.16-.49-41.55,1.7-61.84,7.39-13.19,3.42-25.01,8.48-37.29,15.57l17.27,57.35c24.6-14.55,57.18-25.64,84.76-18.08,6.88,2.29,12.96,6.35,15.75,13.13l-34.63,3.12c-20.6,1.85-39.98,8.78-57.71,18.88-24.73,14.08-39.18,38.49-38.76,66.97.51,33.96,22.54,63.08,56.12,71.79,28.89,7.5,61.07,2.09,84.16-16.37l3.34,14.77h77.16c-4.01-18.66-6.46-36.37-6.56-55.26ZM2450.73,300.68c-.17,22.37-27.69,44.16-56.28,36.48-13.5-3.63-21.99-15.19-21.88-29.01.09-13.34,6.94-24.1,18.87-30.27,11-5.53,23.29-8.34,35.9-8.83l23.63-.92-.24,32.55Z"/>
      <path class="cls-1" d="M1665.08,151.5c-52.11-10.42-103.19,6.13-129.51,53.75-11.85,21.44-16.45,45.23-15.83,69.92,1.42,56.35,35.89,98.83,91.57,109.24,25.16,4.75,50.17,4.06,75.47.1,16.06-2.83,30.85-7.37,45.63-14.86l-12.38-59.38c-25.72,10.47-49.49,14.67-74.9,12.33-18.64-1.83-37.12-8.77-44.59-26.51l138.94.07c13.7-61.52-8.47-130.6-74.4-144.66ZM1599.64,236.73c2.27-9.37,7.33-19.34,16.69-24.86,10.48-6.18,24.61-5.99,34.94.42,8.58,5.32,12.57,14.78,14.06,24.44h-65.69Z"/>
      <path class="cls-4" d="M2832.96,586.84c-59.8-11.96-118.42,7.03-148.62,61.68-13.6,24.6-18.88,51.9-18.17,80.24,1.63,64.66,41.19,113.41,105.08,125.36,28.87,5.45,57.57,4.66,86.61.11,18.43-3.25,35.4-8.46,52.36-17.05l-14.21-68.14c-29.52,12.01-56.79,16.83-85.95,14.15-21.39-2.1-42.6-10.06-51.17-30.42l159.44.08c15.72-70.6-9.72-149.87-85.38-166.01ZM2757.86,684.65c2.6-10.75,8.41-22.19,19.15-28.53,12.03-7.09,28.24-6.87,40.1.48,9.85,6.1,14.42,16.96,16.13,28.05h-75.38Z"/>
    </g>
  </g>
</svg>